<?xml version="1.0" encoding="UTF-8"?>
<!DOCTYPE svg PUBLIC "-//W3C//DTD SVG 1.1//EN" "http://www.w3.org/Graphics/SVG/1.1/DTD/svg11.dtd">
<!-- Creator: CorelDRAW 2020 (64 Bit) -->
<svg xmlns="http://www.w3.org/2000/svg" xml:space="preserve" width="15.0706mm" height="6.1806mm" version="1.1" style="shape-rendering:geometricPrecision; text-rendering:geometricPrecision; image-rendering:optimizeQuality; fill-rule:evenodd; clip-rule:evenodd"
viewBox="0 0 1507.06 618.06"
 xmlns:xlink="http://www.w3.org/1999/xlink"
 xmlns:xodm="http://www.corel.com/coreldraw/odm/2003">
 <defs>
  <style type="text/css">
   <![CDATA[
    .fil0 {fill:currentColor}
    .fil2 {fill:currentColor}
    .fil4 {fill:currentColor}
    .fil1 {fill:#FFBB00}
    .fil3 {fill:none}
   ]]>
  </style>
 </defs>
 <g id="Camada_x0020_1">
  <metadata id="CorelCorpID_0Corel-Layer"/>
  <g id="_1273624471888">
   <path class="fil0" d="M584.23 427.99l74.82 0 0.07 -181.18 3.73 0.02 34.38 180.88c4.64,0.67 25.47,0.48 30.99,0.13 5.95,-30.69 11.14,-60.41 17.03,-91.07l15.83 -84.94c0.88,-5.31 0.51,-5.02 4.8,-5.02l0.14 180.88c5.5,0.86 64.35,0.3 74.96,0.3l0.21 -285.99 -97.72 0 -25.72 137.86c-8.74,0.59 -7.97,0.27 -8.75,-3.18 -0.34,-1.5 -0.6,-2.98 -0.89,-4.41 -0.59,-2.87 -1.19,-5.81 -1.8,-8.66l-26.46 -121.33 -95.62 -0.28 0 285.99z"/>
   <path class="fil0" d="M957.92 310.42l32.71 0.13 -0.06 63.68 -32.75 -0.3 0.1 -63.51zm0 -114.53l32.71 0.13 0 60.5 -32.81 -0.34 0.1 -60.29zm-82.91 232.1l142.01 0c3.35,0 5.19,-2.36 7.59,-4.19 2.25,-1.73 4.74,-3.63 7.1,-5.34l35.25 -26.91c3.59,-2.74 6.44,-3.95 6.44,-6.1l0 -74.6c0,-2.57 -8.19,-6.49 -10.53,-7.89l-23.1 -14.21c-2.7,-1.69 -9.48,-5.34 -11.38,-7.25l29.19 -21.06c2.06,-1.41 9.28,-5.92 9.28,-7.84l0 -73.29c0,-2.42 -8.31,-7.65 -11.59,-10.11 -4.46,-3.34 -35.1,-27.2 -37.59,-27.2l-142.67 0 0 285.99z"/>
   <path class="fil0" d="M1192.67 210.16c0.09,-0.93 0.22,-2.76 0.35,-3.44 0.62,-3.23 -0.45,-1.54 1.35,-2.84l5.89 0c1.74,1.2 1.02,0.19 1.54,3.3 2.33,13.83 5.22,40.58 7.13,54.98 1.93,14.49 6.77,46.67 7.69,59.16l-35.71 0 11.76 -111.16zm-105.41 217.82l80.68 0 7 -52.7 47.78 -0.07 6.46 52.77 80.7 0.01 -52.25 -285.7 -119.64 -0.29 -50.73 285.98z"/>
   <path class="fil1" d="M212.26 336.85c3.25,-1.63 24.57,-22.45 28.56,-26.03l6.67 -5.76c1.59,-1.25 2.18,-1.58 3.56,-3.01l9.77 -8.55c1.37,-1.14 1.93,-2.06 3.32,-3.2 1.36,-1.12 2.06,-1.43 3.3,-2.63l9.66 -8.65c1.64,-1.25 1.39,-1.25 3.03,-2.85 1.38,-1.34 2.26,-1.68 3.61,-2.96 1.32,-1.24 1.55,-1.77 2.95,-2.9 1.54,-1.23 2.22,-1.54 3.6,-2.98 5.46,-5.74 22.05,-19.17 28.67,-21.2l0.07 34.37c6.15,-0.76 19.54,-12.29 26.31,-17 14.77,-10.27 74.28,-45.17 85.86,-47.57l-8.9 46.98c4,-0.44 30.96,-15.52 36.21,-18.42 5.88,-3.25 12.46,-6.35 18.07,-9.46 5.42,-3.01 13.46,-5.91 18.39,-9.07l0.75 -83.96 -283.44 0.36c-0.91,4.34 -0.49,154.38 -0.31,169.8 0.09,7.33 -0.52,17.8 0.29,24.69z"/>
   <path class="fil2" d="M367.22 341.72l4.72 -55.84c-12.05,4.46 -62.13,46.43 -75.33,57.16 -4.74,3.84 -20.35,16.93 -25.83,18.69l7.54 -46.4c-6.28,2.67 -44.45,32.84 -51.84,39.39l-59.38 57.4c5.45,-1.7 15.12,-7.76 21.52,-10.82 3.75,-1.78 19.5,-9.08 22.96,-8.82l0.31 33.55 283.65 0.86c1.24,-24.41 -0.49,-50.53 -0.53,-74.81 -0.03,-24.14 -1.86,-50.2 -0.19,-73.95 0.59,-8.42 9.42,-16.95 14.82,-22.45 3.2,-3.24 6.11,-5.8 9.7,-9.27l31.08 -25.85c3.5,-2.68 7.25,-5.57 10.78,-8.22 3.64,-2.73 7.34,-5.21 10.72,-8.14 -12.73,2.92 -67.06,38.3 -80.02,47.48 -26.05,18.46 -49.93,33.68 -75.23,53.7 -6.18,4.89 -42.36,34.08 -49.45,36.34z"/>
   <path class="fil3" d="M1180.91 321.32l35.71 0c-0.92,-12.49 -5.76,-44.67 -7.69,-59.16 -1.91,-14.4 -4.8,-41.15 -7.13,-54.98 -0.52,-3.11 0.2,-2.1 -1.54,-3.3l-5.89 0c-1.8,1.3 -0.73,-0.39 -1.35,2.84 -0.13,0.68 -0.26,2.51 -0.35,3.44l-11.76 111.16z"/>
   <polygon class="fil3" points="957.82,373.93 990.57,374.23 990.63,310.55 957.92,310.42 "/>
   <polygon class="fil3" points="957.82,256.18 990.63,256.52 990.63,196.02 957.92,195.89 "/>
   <path class="fil2" d="M922.23 454.72c13.87,-7.13 17.06,27.08 5.77,31.5 -13.5,5.29 -16.64,-25.91 -5.77,-31.5zm-2.36 -5.22c-27.48,6.06 -18.48,49.22 11.67,41.57 10.25,-2.59 18.44,-13.33 14.9,-26.67 -2.69,-10.16 -12.67,-17.97 -26.57,-14.9z"/>
   <path class="fil2" d="M1200.36 454.72c13.88,-7.13 17.06,27.08 5.78,31.5 -13.51,5.29 -16.65,-25.91 -5.78,-31.5zm-2.35 -5.22c-27.48,6.06 -18.49,49.22 11.67,41.57 10.24,-2.59 18.44,-13.33 14.9,-26.67 -2.7,-10.16 -12.68,-17.97 -26.57,-14.9z"/>
   <path class="fil2" d="M1065.86 490.82l11.19 -0.16 0 -35.81c6.1,-0.06 12.41,-0.23 11.8,8.41 -0.47,6.53 -4.71,6.03 -10.84,6.74l9.79 20.67 12.85 0.01c-2.72,-5.14 -7.58,-12.44 -9.59,-17.58 4.74,-1.82 7.53,-2.82 8.84,-7.38 5.62,-19.57 -24.6,-16.13 -34.04,-16.13l0 41.23z"/>
   <path class="fil2" d="M1232.74 490.82l11.19 -0.16 0 -35.81c6.1,-0.06 12.41,-0.23 11.8,8.41 -0.47,6.53 -4.71,6.03 -10.84,6.74l9.79 20.67 12.85 0.01c-2.72,-5.14 -7.58,-12.44 -9.59,-17.58 4.74,-1.82 7.53,-2.82 8.84,-7.38 1.63,-5.69 -0.73,-10.52 -3.81,-12.75 -6.63,-4.8 -20.88,-3.38 -30.23,-3.38l0 41.23z"/>
   <path class="fil2" d="M954.61 490.82l6.06 -0.1 0.01 -29.37 19.66 29.35 6.7 0.08 0 -41.15 -6.05 0.01 0 20.38c-1.9,-1.5 -12.16,-17.46 -13.52,-20.4l-12.86 -0.03 0 41.23z"/>
   <path class="fil4" d="M1269.32 490.8l6.17 0.03c0.67,-3.19 2.89,-9.41 4.22,-12.08l13.25 -0.03c6.99,13.18 -1.75,12.19 16.83,12.16 -2.09,-6.81 -4.91,-14.26 -7.45,-20.91 -9.1,-23.84 -4,-20.48 -18.93,-20.41l-14.09 41.24z"/>
   <path class="fil2" d="M1140.52 449.79l-5.73 -0.15c0,6.97 0.03,13.93 0,20.89 -0.02,6.95 0.48,14.31 -7.17,14.42 -8.08,0.11 -7.92,-6.09 -7.93,-13.77 -0.01,-7.15 0,-14.31 0,-21.47l-11.51 -0.08c0,9.24 -0.48,19.74 0.14,28.63 0.63,9.04 6.47,13.45 16.02,13.52 21.2,0.18 16.18,-20.11 16.18,-41.99z"/>
   <path class="fil2" d="M899.32 481l-4.65 -3.4c-7.42,14.1 -22.43,10.49 -23.39,-5.78 -0.44,-7.56 1.59,-14.38 6.47,-16.86 8.47,-4.33 12.37,2.72 15.58,6.46 2.24,-1.19 3.26,-2.1 4.98,-3.48 -10.17,-16.6 -39.87,-10.48 -39.35,13.26 0.52,23.61 33.27,27.16 40.36,9.8z"/>
   <path class="fil2" d="M1000.04 480.57c-1.61,1.01 -3.57,2.2 -5.16,3.08 6.51,15.08 34.41,8 28.74,-9.23 -2.2,-6.69 -10.63,-7.94 -15.75,-11.76 -7.71,-5.76 6.26,-14.78 10.23,-3.02 2.71,-0.94 2.74,-1.64 4.92,-2.68 -5.18,-15.74 -34.02,-7.16 -26.52,9.84 3.03,6.88 12.46,7.36 15.62,11.92 2.32,3.35 0.41,7.71 -4.26,7.76 -4.99,0.05 -5.31,-3.66 -7.82,-5.91z"/>
   <polygon class="fil2" points="1026.95,455.14 1037.73,455.26 1037.72,490.82 1046.47,490.82 1049.22,490.78 1049.24,455.24 1060.24,455.11 1060.24,449.66 1026.81,449.59 "/>
   <polygon class="fil2" points="1145.4,455.14 1156.18,455.26 1156.17,490.82 1164.92,490.82 1167.67,490.78 1167.7,455.24 1178.69,455.11 1178.69,449.66 1145.26,449.59 "/>
   <path class="fil3" d="M922.23 454.72c-10.87,5.59 -7.73,36.79 5.77,31.5 11.29,-4.42 8.1,-38.63 -5.77,-31.5z"/>
   <path class="fil3" d="M1200.36 454.72c-10.87,5.59 -7.73,36.79 5.78,31.5 11.28,-4.42 8.1,-38.63 -5.78,-31.5z"/>
  </g>
 </g>
</svg>
